<?xml version="1.0" encoding="UTF-8"?>
<svg version="1.1" xmlns="http://www.w3.org/2000/svg" width="555" height="555">
<path d="M0 0 C183.15 0 366.3 0 555 0 C555 183.15 555 366.3 555 555 C371.85 555 188.7 555 0 555 C0 371.85 0 188.7 0 0 Z " fill="#FDFDFE" transform="translate(0,0)"/>
<path d="M0 0 C183.15 0 366.3 0 555 0 C555 183.15 555 366.3 555 555 C371.85 555 188.7 555 0 555 C0 371.85 0 188.7 0 0 Z M75.9375 25.9375 C71.44413582 30.72075864 70.81347189 37.72464543 70 44 C69.54333578 45.63725698 69.08396625 47.27382421 68.60864258 48.90576172 C57.25343904 87.97713593 50.97287118 140.17343365 61 180 C61.09262847 181.77640825 61.1817696 183.55319413 61.24023438 185.33105469 C61.59598143 195.70060066 63.41368966 205.63608303 65.53515625 215.77441406 C65.8611416 217.33517164 66.17656786 218.89815434 66.48413086 220.46264648 C67.00338956 223.01667188 67.58495255 225.5473658 68.19140625 228.08203125 C68.41376953 229.01337891 68.63613281 229.94472656 68.86523438 230.90429688 C69.09533203 231.86400391 69.32542969 232.82371094 69.5625 233.8125 C69.79646484 234.79154297 70.03042969 235.77058594 70.27148438 236.77929688 C70.84683943 239.18639457 71.42303742 241.59328721 72 244 C72.66 244 73.32 244 74 244 C73.90138672 245.91425781 73.90138672 245.91425781 73.80078125 247.8671875 C73.80617807 253.39137568 75.32064093 257.97344449 77.1875 263.125 C77.83744541 264.98820946 78.48718405 266.85149107 79.13671875 268.71484375 C79.45688965 269.61831543 79.77706055 270.52178711 80.10693359 271.45263672 C81.29677091 274.84650291 82.39601093 278.26476465 83.5 281.6875 C86.05843084 289.3712084 88.99675418 296.89279232 91.98974609 304.41516113 C92.69742221 306.22582351 93.38777456 308.043308 94.06506348 309.86555481 C96.95552951 317.59562127 100.25754473 324.99555042 103.9375 332.37890625 C104.49888672 333.51166489 105.06027344 334.64442352 105.63867188 335.81150818 C106.82225296 338.19375389 108.00840242 340.57450933 109.19873047 342.95336914 C110.98305214 346.52165068 112.74252811 350.10197828 114.50390625 353.68164062 C121.09870644 366.96793641 128.16208114 379.59569994 136.53778076 391.84074402 C139.02805904 395.51813256 141.41371701 399.26260218 143.8125 403 C144.7152934 404.39248011 145.61881814 405.78448667 146.5234375 407.17578125 C148.04477945 409.51813726 149.5481105 411.86836663 151.0390625 414.23046875 C155.04958327 420.47730872 159.48665582 426.07903492 164.36694336 431.64916992 C167.88456315 435.66702445 171.23483456 439.77497883 174.5 444 C180.09106756 451.2127104 186.00618434 458.12081149 192 465 C192.65871094 465.76054687 193.31742188 466.52109375 193.99609375 467.3046875 C195.65438637 469.2119155 197.32453586 471.10784765 199 473 C200.00740234 474.14662109 200.00740234 474.14662109 201.03515625 475.31640625 C209.15281983 484.46488425 217.55748328 493.07872611 227.140625 500.69921875 C229.65734797 502.72428682 232.10203402 504.81229115 234.53588867 506.93554688 C251.33660874 521.69835418 251.33660874 521.69835418 272 529 C272.66 529.33 273.32 529.66 274 530 C284.01496585 531.01913547 293.69316261 528.64864942 302 523 C303.66939666 521.33606781 305.33582275 519.66915237 307 518 C308.62621954 516.62234085 310.27296671 515.26861368 311.9375 513.9375 C316.96885842 509.86772018 321.89016279 505.68700474 326.78662109 501.45629883 C330.48780889 498.26760673 334.24672514 495.17556563 338.0625 492.125 C341.92113372 489.00080608 344.93243691 485.87956508 348 482 C348.78375 481.38125 349.5675 480.7625 350.375 480.125 C353.36898841 477.7012951 355.68454069 474.99602486 358.1796875 472.07421875 C359.88594825 470.12996026 361.65296485 468.30976314 363.5 466.5 C376.75219682 453.39375249 388.03543112 438.02710973 399 423 C399.50950195 422.30229492 400.01900391 421.60458984 400.54394531 420.88574219 C407.13051745 411.82146266 413.26627294 402.61358698 418.88476562 392.91992188 C420.0435407 390.9250429 421.21538878 388.93834689 422.390625 386.953125 C424.50193506 383.38524917 426.59819494 379.80878267 428.69091797 376.22998047 C430.01612472 373.97253204 431.35314338 371.72238465 432.69140625 369.47265625 C435.526034 364.68447476 438.28857519 359.8589735 441 355 C441.43393066 354.22253418 441.86786133 353.44506836 442.31494141 352.64404297 C451.40532575 336.0734928 457.81120668 318.42587031 464.43865967 300.77470398 C467.12493934 293.63100709 469.93691777 286.5421137 472.83081055 279.47998047 C474.10998689 276.33740804 475.19097761 273.28906615 476 270 C476.74320645 268.03907837 477.49432351 266.08114991 478.25 264.125 C481.48596902 255.16313766 483.40438713 245.96855693 485.40917969 236.66845703 C486.10971339 233.50447629 486.88536702 230.36301367 487.66967773 227.21899414 C489.42699979 220.11265221 490.62952835 213.10760796 491.43359375 205.8203125 C491.86922376 201.92777509 492.41082111 198.05597999 492.97265625 194.1796875 C494.76516436 181.78535733 496.42183722 169.53994142 496.82421875 157.015625 C497 154 497 154 498 153 C498.10104763 150.2961179 498.13970023 147.61833487 498.1328125 144.9140625 C498.13376923 144.10133881 498.13472595 143.28861511 498.13571167 142.45126343 C498.13639361 140.72792483 498.13453838 139.00458369 498.13037109 137.28125 C498.12503674 134.64317025 498.13030848 132.00526182 498.13671875 129.3671875 C498.1360577 127.69531212 498.13477598 126.02343685 498.1328125 124.3515625 C498.13584885 123.16549911 498.13584885 123.16549911 498.13894653 121.95547485 C498.12507375 118.71052868 498.03349028 116.10047084 497 113 C496.73381524 110.51482044 496.50836729 108.04170813 496.31640625 105.55078125 C496.19221105 104.04751333 496.06785695 102.54425853 495.94335938 101.04101562 C495.75234463 98.68255825 495.56340293 96.32396848 495.37768555 93.96508789 C495.19638019 91.68064041 495.00682033 89.39698509 494.81640625 87.11328125 C494.76424454 86.4202742 494.71208282 85.72726715 494.65834045 85.01325989 C494.36213124 81.5098761 493.86294333 78.21943198 492.97485352 74.81396484 C492.17769072 71.6951877 491.74122229 69.04981468 491.5859375 65.86328125 C491.05133745 59.09907322 489.37087251 52.72730758 487.625 46.1875 C487.32078125 44.99962891 487.0165625 43.81175781 486.703125 42.58789062 C485.25257558 37.06154531 483.85068971 31.99715044 481 27 C478.76912793 25.96817348 478.76912793 25.96817348 476 26 C474.845 25.814375 473.69 25.62875 472.5 25.4375 C467.00017215 25.49929582 462.95209619 28.85431033 458.515625 31.765625 C455.00927711 34.0492869 451.37624718 35.96516484 447.625 37.8125 C446.52414062 38.35519531 445.42328125 38.89789063 444.2890625 39.45703125 C439.263731 41.8145205 434.16496564 43.96531657 429 46 C429 46.66 429 47.32 429 48 C427.948125 48.061875 426.89625 48.12375 425.8125 48.1875 C421.88039206 48.66349201 418.5944806 49.87157464 414.9375 51.375 C402.13969241 56.48119108 389.49755823 57.58958541 375.875 57.5 C374.72647552 57.4958609 374.72647552 57.4958609 373.55474854 57.49163818 C360.7812313 57.40693977 349.13262534 56.24028192 337 52 C336.06172363 51.68305176 335.12344727 51.36610352 334.15673828 51.03955078 C317.09845765 45.14406223 301.81425746 36.66185724 286.40063477 27.42358398 C282.21904682 24.94388915 278.84193933 24.36434832 274 25 C270.66448258 26.59568565 270.66448258 26.59568565 267.5625 28.9375 C266.34357171 29.77239605 265.12073916 30.60161395 263.89453125 31.42578125 C263.2598291 31.8532666 262.62512695 32.28075195 261.97119141 32.72119141 C236.88733165 48.99432212 206.25822756 58.49211325 176.50537109 58.02832031 C174.36437655 58.00411885 172.22295402 58.02480423 170.08203125 58.0546875 C151.26335025 57.77230643 131.69328698 50.4131079 115 42 C114.28634277 41.64260742 113.57268555 41.28521484 112.83740234 40.91699219 C105.20288507 37.0593785 97.87573952 33.05431231 90.85546875 28.15234375 C86.48598195 25.43866247 80.82121233 23.71763076 75.9375 25.9375 Z " fill="#FEFEFE" transform="translate(0,0)"/>
<path d="M0 0 C6.54221446 1.4174798 11.77240831 4.32395132 17.375 7.875 C47.13626789 26.04008973 84.35408753 38.67276385 119.5625 31.75 C121.97548408 31.14037418 124.3583794 30.49557642 126.75 29.8125 C127.57838379 29.58675293 128.40676758 29.36100586 129.26025391 29.12841797 C149.82270871 23.48475005 174.56277085 15.52643997 190.78125 0.9921875 C194.00767286 -0.94110556 197.16256893 -0.81368448 200.75 -0.1875 C203.77823819 0.98658388 206.47632918 2.57055487 209.25 4.25 C210.03552246 4.7030249 210.82104492 5.1560498 211.63037109 5.62280273 C214.69048704 7.390767 217.72808893 9.19356801 220.75097656 11.02441406 C232.80980556 18.32729597 245.37745027 23.37599843 258.75 27.8125 C259.49878418 28.06966797 260.24756836 28.32683594 261.01904297 28.59179688 C285.35980818 36.63351485 316.8625035 33.82903443 340.05078125 23.765625 C342.8124992 22.79043082 344.84708825 22.62214513 347.75 22.8125 C347.75 22.1525 347.75 21.4925 347.75 20.8125 C351.84410312 18.68963172 355.86547028 16.73371432 360.1875 15.125 C365.18641472 13.17534527 369.8869319 10.75331027 374.625 8.25 C375.73186157 7.66762573 375.73186157 7.66762573 376.86108398 7.07348633 C379.74341896 5.53177227 382.42796842 4.0633398 385.01171875 2.05078125 C387.97084695 -0.05718199 391.29347549 0.57102623 394.75 0.8125 C396.11125 0.7815625 396.11125 0.7815625 397.5 0.75 C401.42283955 2.60245201 402.2896938 6.90602242 403.75 10.8125 C404.9613786 14.73738029 405.9664006 18.69716429 406.9375 22.6875 C407.19724609 23.69941406 407.45699219 24.71132813 407.72460938 25.75390625 C409.15689922 31.53487975 410.11334068 37.10078417 410.43481445 43.05126953 C410.77461144 46.02811221 411.51461535 48.81813785 412.2691803 51.71270752 C413.04273166 55.09089131 413.30673583 58.47586703 413.56640625 61.92578125 C413.62779282 62.66201218 413.68917938 63.3982431 413.75242615 64.15678406 C413.94535199 66.4790635 414.12960055 68.80191116 414.3125 71.125 C414.50000723 73.46583164 414.689462 75.8064569 414.88328552 78.14677429 C415.00297644 79.59552214 415.11891043 81.04458659 415.23060608 82.49397278 C415.4728194 85.45610206 415.80533343 87.97850029 416.75 90.8125 C416.8470997 93.60494076 416.889961 96.37170268 416.8828125 99.1640625 C416.88424759 100.38601822 416.88424759 100.38601822 416.88571167 101.63265991 C416.88639166 103.35243812 416.88454998 105.07221892 416.88037109 106.79199219 C416.87500649 109.43430283 416.88032925 112.07644455 416.88671875 114.71875 C416.88605821 116.38802121 416.88477754 118.05729232 416.8828125 119.7265625 C416.88483673 120.52131989 416.88686096 121.31607727 416.88894653 122.13491821 C416.86496014 127.69753986 416.86496014 127.69753986 415.75 128.8125 C415.58053581 130.43437866 415.47314434 132.06278749 415.390625 133.69140625 C414.38606555 150.91940287 412.10980328 167.63904227 409.25732422 184.63818359 C408.86858566 187.07051212 408.54112307 189.47781926 408.28515625 191.92578125 C407.65640755 196.49224077 406.62803891 200.89597922 405.56152344 205.37792969 C404.77527031 208.70554973 404.04034399 212.04030847 403.3203125 215.3828125 C402.83854167 217.56770833 402.35677083 219.75260417 401.875 221.9375 C401.64425781 223.02675781 401.41351563 224.11601562 401.17578125 225.23828125 C399.73437191 231.68993698 397.82916473 237.37219966 394.83154297 243.27294922 C393.6172504 246.12420684 393.24559285 248.75925936 392.75 251.8125 C392.02797806 253.88776248 391.2445003 255.94225596 390.4140625 257.9765625 C389.93267822 259.16668945 389.45129395 260.35681641 388.95532227 261.58300781 C388.42876723 262.86792833 387.90198721 264.15275667 387.375 265.4375 C386.26964607 268.15263738 385.16786972 270.86921991 384.06640625 273.5859375 C383.78645309 274.27478027 383.50649994 274.96362305 383.21806335 275.67333984 C381.4125561 280.12957724 379.66869026 284.60518115 377.96484375 289.1015625 C368.73464324 313.41431064 357.16988025 335.78712544 343.52832031 357.90527344 C341.84143326 360.66302344 340.19037357 363.43820486 338.5546875 366.2265625 C328.66377031 383.07479905 317.38353943 398.57748682 305.27001953 413.89013672 C303.97513742 415.52776951 302.68792462 417.17146168 301.40234375 418.81640625 C297.42520503 423.86887472 293.24378004 428.68370421 288.91015625 433.43359375 C286.94730067 435.59521952 285.0303374 437.78776262 283.125 440 C280.32159652 443.22619054 277.35610043 446.23227157 274.3046875 449.22265625 C272.58996611 450.91888393 272.58996611 450.91888393 270.6875 453.4375 C268.33362821 456.32289122 265.63145057 458.46029545 262.75 460.8125 C261.07920964 462.47503275 259.41295611 464.14213101 257.75 465.8125 C251.56531044 471.63111759 245.19481317 477.17206564 238.59375 482.51171875 C235.48253427 485.02889741 232.39255263 487.56986507 229.3125 490.125 C228.34441406 490.92550781 227.37632812 491.72601562 226.37890625 492.55078125 C223.77156389 494.71641912 223.77156389 494.71641912 221.703125 496.97265625 C218.32032317 500.15925557 214.07258922 501.29320737 209.75 502.8125 C208.595 503.225 207.44 503.6375 206.25 504.0625 C199.75785858 505.45367316 193.8401589 505.62334257 187.75 502.8125 C186.450625 502.6475 185.15125 502.4825 183.8125 502.3125 C176.45338184 500.76708519 170.56409707 495.33438381 164.75 490.8125 C163.87085938 490.13574219 162.99171875 489.45898438 162.0859375 488.76171875 C159.60954106 486.813674 157.17444557 484.82482695 154.75 482.8125 C154.25677246 482.40418945 153.76354492 481.99587891 153.25537109 481.57519531 C135.9656079 467.2264469 120.12635082 451.90232288 105.875 434.5 C105.26205078 433.75363281 104.64910156 433.00726563 104.01757812 432.23828125 C100.054231 427.41043164 96.09453105 422.5795214 92.15234375 417.734375 C90.26454884 415.43832526 88.35961128 413.16108715 86.44140625 410.890625 C79.47944451 402.61440571 73.02690506 394.2664192 67.22851562 385.13769531 C65.45073316 382.34185645 63.65487702 379.55792888 61.859375 376.7734375 C54.99710746 366.10831021 54.99710746 366.10831021 51.69946289 360.88964844 C50.45509516 358.92546423 49.19771731 356.96942175 47.92358398 355.02441406 C41.3958184 344.83664069 36.12068725 334.00655362 30.73999023 323.18359375 C29.06412103 319.81575763 27.37549934 316.45453726 25.68554688 313.09375 C24.59818858 310.91705102 23.51157482 308.73997993 22.42578125 306.5625 C21.92983963 305.57668945 21.43389801 304.59087891 20.92292786 303.57519531 C17.40759376 296.47444211 14.51954011 289.23143367 11.75 281.8125 C10.98271167 279.86266896 10.21129843 277.91444984 9.43359375 275.96875 C2.24697705 257.89958705 2.24697705 257.89958705 -0.27734375 249.05859375 C-1.05841495 246.45188625 -1.90573438 243.9098947 -2.81640625 241.34765625 C-3.09395752 240.55657471 -3.37150879 239.76549316 -3.6574707 238.95043945 C-4.20101452 237.40989988 -4.7548128 235.87292185 -5.32104492 234.34057617 C-7.19410033 228.97509691 -7.49701085 224.49374965 -7.25 218.8125 C-7.91 218.8125 -8.57 218.8125 -9.25 218.8125 C-9.39622803 218.16700195 -9.54245605 217.52150391 -9.69311523 216.85644531 C-10.35745418 213.92502666 -11.02246995 210.99376194 -11.6875 208.0625 C-11.91759766 207.04671875 -12.14769531 206.0309375 -12.38476562 204.984375 C-12.60712891 204.0046875 -12.82949219 203.025 -13.05859375 202.015625 C-13.36494751 200.66452637 -13.36494751 200.66452637 -13.67749023 199.28613281 C-14.02727069 197.77484259 -14.38748978 196.26585939 -14.76586914 194.76147461 C-17.76140351 182.70229615 -19.66606401 170.59675425 -20.07421875 158.18359375 C-20.12961295 155.03254173 -20.12961295 155.03254173 -20.72753906 152.91577148 C-30.03496744 115.44684838 -24.00367377 65.3198802 -13.95068359 28.44580078 C-13.26769239 25.87899132 -12.65984861 23.30717245 -12.08203125 20.71484375 C-11.90736328 19.93125488 -11.73269531 19.14766602 -11.55273438 18.34033203 C-11.39095703 17.60927246 -11.22917969 16.87821289 -11.0625 16.125 C-7.36038495 -0.42463759 -7.36038495 -0.42463759 0 0 Z M187.4375 19.8125 C176.13685014 27.39990731 164.17401178 32.93252888 151.37109375 37.48828125 C148.85927858 38.40684149 146.42922882 39.35389721 143.98046875 40.4140625 C137.30139582 43.30536614 130.6105796 44.36018778 123.4453125 45.34765625 C120.84006176 45.53022372 120.84006176 45.53022372 119.75 46.8125 C116.8046443 46.91360353 113.8832244 46.95219279 110.9375 46.9453125 C110.05344482 46.94626923 109.16938965 46.94722595 108.25854492 46.94821167 C106.38557871 46.94889351 104.51261014 46.94703893 102.63964844 46.94287109 C99.76231612 46.93752289 96.88513992 46.94281593 94.0078125 46.94921875 C92.19270799 46.94855797 90.37760357 46.94727681 88.5625 46.9453125 C87.69584717 46.94733673 86.82919434 46.94936096 85.9362793 46.95144653 C79.86495009 46.92745009 79.86495009 46.92745009 78.75 45.8125 C76.79749137 45.48409641 74.83736367 45.2006876 72.875 44.9375 C63.94761573 43.61058824 55.70080751 41.38470441 47.3828125 37.890625 C45.56293531 37.14539339 43.72199705 36.45033094 41.8671875 35.796875 C29.71989112 31.47377704 18.3697452 25.09990043 7.75 17.8125 C5.74763924 18.44786679 5.74763924 18.44786679 3.75 19.8125 C2.66393436 22.17625403 2.66393436 22.17625403 2.08203125 25.01171875 C1.82873047 26.05650391 1.57542969 27.10128906 1.31445312 28.17773438 C0.94223633 29.82225586 0.94223633 29.82225586 0.5625 31.5 C0.30275391 32.57701172 0.04300781 33.65402344 -0.22460938 34.76367188 C-1.96509844 42.09891134 -3.40597021 49.17891264 -3.3125 56.75 C-3.30347656 57.70777344 -3.29445313 58.66554687 -3.28515625 59.65234375 C-3.27355469 60.36519531 -3.26195312 61.07804687 -3.25 61.8125 C-3.91 61.8125 -4.57 61.8125 -5.25 61.8125 C-8.32701542 89.55849549 -8.04920868 117.85577107 -6.3125 145.6875 C-6.26902435 146.39593048 -6.22554871 147.10436096 -6.18075562 147.83425903 C-6.41687094 154.79525894 -6.41687094 154.79525894 -4.25 160.8125 C-3.93932183 163.03646353 -3.67903772 165.26746909 -3.4375 167.5 C-1.52909887 183.63114735 1.58100848 199.27049072 6.28515625 214.8203125 C7.36541157 218.40798242 8.31286989 222.0089962 9.203125 225.6484375 C14.75774696 248.20138945 22.67603162 269.90138382 32.75 290.8125 C42.25901571 291.26090906 42.25901571 291.26090906 50.66796875 287.296875 C55.20783126 282.99102602 57.55564621 279.60783102 58.00168228 273.19263077 C58.01263622 271.76406208 58.01264893 270.33538362 58.00396729 268.90679932 C58.00708727 268.11666813 58.01020725 267.32653694 58.01342177 266.51246238 C58.02139149 263.86793262 58.01508203 261.22363298 58.00878906 258.57910156 C58.01149947 256.6816596 58.01506068 254.7842187 58.01940918 252.88677979 C58.02853204 247.73371714 58.02498867 242.58073453 58.01865101 237.42767048 C58.01358755 232.03199866 58.0182837 226.6363337 58.02142334 221.24066162 C58.02506322 212.17507701 58.02026461 203.10952498 58.01074219 194.04394531 C57.99987073 183.57336314 58.00337362 173.10285894 58.014395 162.63227868 C58.02348291 153.63762504 58.02474539 144.64299483 58.01951766 135.64833808 C58.01640455 130.27863015 58.01597025 124.9089588 58.02259064 119.53925323 C58.02838486 114.48642599 58.02432921 109.43369875 58.01280212 104.38088226 C58.01016607 102.53021917 58.01090253 100.67954762 58.01532745 98.82888794 C58.0208265 96.29452486 58.0138962 93.76047839 58.00396729 91.22613525 C58.00842873 90.50091746 58.01289017 89.77569966 58.01748681 89.02850556 C57.9702041 82.76752076 57.25987641 76.53027754 54.1875 71 C46.33210079 63.95028276 37.78698435 64.3364375 27.75 64.8125 C27.75 62.5025 27.75 60.1925 27.75 57.8125 C28.40825272 57.97548584 29.06650543 58.13847168 29.7447052 58.30639648 C33.45651879 58.93148056 37.08421074 58.93604112 40.8347168 58.91015625 C42.03602234 58.90796585 42.03602234 58.90796585 43.26159668 58.9057312 C44.99778041 58.90193295 46.7339603 58.89582456 48.47012901 58.88766479 C51.23528694 58.87483262 54.00039646 58.86836619 56.76557922 58.86352539 C63.64464803 58.8501899 70.52367174 58.82619542 77.40270996 58.80212402 C83.2022814 58.78219257 89.00183444 58.76662581 94.80143166 58.75656128 C97.49409429 58.7501896 100.18667985 58.73767496 102.87931824 58.72485352 C111.14341119 58.69978313 119.37991148 58.80553379 127.63378906 59.24145508 C128.364127 59.27877495 129.09446493 59.31609482 129.84693432 59.35454559 C135.74563242 59.70609295 141.18211984 60.75758323 146.8125 62.5 C147.65748047 62.73138672 148.50246094 62.96277344 149.37304688 63.20117188 C155.63680005 65.04799056 160.49581979 67.98836835 165.75 71.8125 C166.75740234 72.49771729 166.75740234 72.49771729 167.78515625 73.19677734 C170.74847337 75.22683212 172.73611599 76.79167398 174.75 79.8125 C175.41 79.8125 176.07 79.8125 176.75 79.8125 C177.02199219 80.4003125 177.29398438 80.988125 177.57421875 81.59375 C178.72505621 83.76542999 179.9959182 85.42764169 181.5625 87.3125 C187.28905712 94.8592342 190.06071739 103.43441453 191.390625 112.73046875 C191.5410931 114.79576951 191.5410931 114.79576951 192.75 115.8125 C193.83701558 131.65441552 191.732628 145.44020965 183.921875 159.45703125 C182.52728451 161.82167831 182.52728451 161.82167831 182.75 164.8125 C182.09 164.8125 181.43 164.8125 180.75 164.8125 C180.37875 165.988125 180.37875 165.988125 180 167.1875 C178.51880562 170.2980082 177.77705226 170.42870468 174.75 171.8125 C174.028125 172.555 173.30625 173.2975 172.5625 174.0625 C166.79191192 179.70485279 160.39798957 183.3664479 152.75 185.8125 C151.265 186.369375 151.265 186.369375 149.75 186.9375 C147.23236968 187.67180884 145.02453285 188.07631948 142.4375 188.375 C138.95356334 188.40264592 138.95356334 188.40264592 137.75 189.8125 C123.11592183 191.11847079 108.86817128 189.53226399 94.63745117 186.1796875 C92.57967391 185.71701929 92.57967391 185.71701929 89.75 185.8125 C89.68029966 196.85275942 89.62708726 207.89296595 89.59456348 218.93340111 C89.57894884 224.06066062 89.55778768 229.18776891 89.52368164 234.31494141 C89.4909379 239.26866759 89.47311543 244.22224887 89.46536827 249.17607498 C89.45985162 251.06018986 89.4490793 252.94429736 89.43280983 254.82835007 C89.29101424 270.87868725 89.29101424 270.87868725 94.75 285.8125 C96.53832186 287.10436063 96.53832186 287.10436063 98.625 288 C99.64207031 288.48533203 99.64207031 288.48533203 100.6796875 288.98046875 C105.21160043 290.8017847 109.10075154 290.92036341 114 290.875 C115.26328125 290.86597656 116.5265625 290.85695313 117.828125 290.84765625 C119.27445313 290.83025391 119.27445313 290.83025391 120.75 290.8125 C120.75 293.1225 120.75 295.4325 120.75 297.8125 C93.03 297.8125 65.31 297.8125 36.75 297.8125 C43.02842151 316.64776452 53.52580047 333.90006833 63.75 350.8125 C64.27722656 351.68938477 64.80445313 352.56626953 65.34765625 353.46972656 C68.44081694 358.60983182 71.56940843 363.72602865 74.75 368.8125 C75.39066406 369.83730469 76.03132813 370.86210937 76.69140625 371.91796875 C78.59830056 374.95550731 78.59830056 374.95550731 80.75 377.8125 C81.41 377.8125 82.07 377.8125 82.75 377.8125 C82.86553223 378.39966797 82.98106445 378.98683594 83.10009766 379.59179688 C83.79321318 381.96015856 84.67451567 383.37852089 86.1484375 385.34375 C86.62796875 385.98957031 87.1075 386.63539063 87.6015625 387.30078125 C88.10429687 387.96464844 88.60703125 388.62851562 89.125 389.3125 C89.62 389.97636719 90.115 390.64023437 90.625 391.32421875 C91.57718602 392.59974066 92.53369319 393.87205168 93.49511719 395.140625 C94.51609201 396.50086539 95.50182286 397.88750464 96.4765625 399.28125 C96.89679688 399.7865625 97.31703125 400.291875 97.75 400.8125 C98.41 400.8125 99.07 400.8125 99.75 400.8125 C99.81316406 401.34359375 99.87632812 401.8746875 99.94140625 402.421875 C101.10843395 405.87221775 103.35916241 408.33249969 105.6875 411.0625 C106.14318359 411.61679687 106.59886719 412.17109375 107.06835938 412.7421875 C108.24597565 414.14222324 109.49348962 415.48281514 110.75 416.8125 C111.41 416.8125 112.07 416.8125 112.75 416.8125 C112.9975 417.59625 113.245 418.38 113.5 419.1875 C114.95924503 422.25191457 115.80014956 422.42975761 118.75 423.8125 C119.42245741 425.14292221 120.08806563 426.476811 120.75 427.8125 C121.87304892 429.26398775 123.04221983 430.6807176 124.25 432.0625 C124.8584375 432.76890625 125.466875 433.4753125 126.09375 434.203125 C127.60416368 436.04479504 127.60416368 436.04479504 129.75 435.8125 C129.75 436.4725 129.75 437.1325 129.75 437.8125 C130.41 437.8125 131.07 437.8125 131.75 437.8125 C131.83507812 438.39644531 131.92015625 438.98039062 132.0078125 439.58203125 C132.96061991 442.44546827 134.33265449 443.56452146 136.625 445.5 C137.32367188 446.10199219 138.02234375 446.70398438 138.7421875 447.32421875 C140.77824222 448.99462787 140.77824222 448.99462787 143.75 449.8125 C144.08 450.8025 144.41 451.7925 144.75 452.8125 C145.41 452.8125 146.07 452.8125 146.75 452.8125 C146.75 453.4725 146.75 454.1325 146.75 454.8125 C149.5427142 457.91551577 151.98886217 460.05730235 155.75 461.8125 C156.76534966 462.79691103 157.76342103 463.79925673 158.75 464.8125 C169.24713075 474.54283782 180.72303685 483.08503093 192.75 490.8125 C193.74 491.4725 194.73 492.1325 195.75 492.8125 C200.68208825 492.59806138 203.12797673 491.05325766 206.75 487.8125 C207.8946875 487.008125 207.8946875 487.008125 209.0625 486.1875 C209.619375 485.73375 210.17625 485.28 210.75 484.8125 C210.75 484.1525 210.75 483.4925 210.75 482.8125 C211.513125 482.709375 212.27625 482.60625 213.0625 482.5 C215.93416484 481.76538806 216.98042094 481.1408935 218.75 478.8125 C218.75 478.1525 218.75 477.4925 218.75 476.8125 C219.31460938 476.73128906 219.87921875 476.65007812 220.4609375 476.56640625 C223.48508551 475.57039846 225.07013075 473.93849963 227.375 471.75 C231.63838169 467.78979212 236.03429173 464.11720982 240.62109375 460.5390625 C242.4697941 459.03974956 244.18931698 457.60904187 245.75 455.8125 C245.75 455.1525 245.75 454.4925 245.75 453.8125 C246.41 453.8125 247.07 453.8125 247.75 453.8125 C248.41 452.8225 249.07 451.8325 249.75 450.8125 C251.41419368 449.80838986 253.08118758 448.80891501 254.75 447.8125 C256.39968175 446.34116222 258.00462018 444.81821401 259.5625 443.25 C260.35269531 442.46496094 261.14289063 441.67992187 261.95703125 440.87109375 C263.96892691 439.01612864 263.96892691 439.01612864 263.75 436.8125 C264.41 436.8125 265.07 436.8125 265.75 436.8125 C266.08 435.8225 266.41 434.8325 266.75 433.8125 C267.74 433.4825 268.73 433.1525 269.75 432.8125 C271.64610305 430.79682421 271.64610305 430.79682421 273.4375 428.375 C274.37142578 427.17037109 274.37142578 427.17037109 275.32421875 425.94140625 C276.93548601 423.96258209 276.93548601 423.96258209 276.75 421.8125 C277.41 421.8125 278.07 421.8125 278.75 421.8125 C281.14820305 419.17565253 281.14820305 419.17565253 281.75 415.8125 C282.74 415.4825 283.73 415.1525 284.75 414.8125 C285.059375 414.008125 285.36875 413.20375 285.6875 412.375 C286.75 409.8125 286.75 409.8125 288.875 408.5 C289.49375 408.273125 290.1125 408.04625 290.75 407.8125 C290.75 406.8225 290.75 405.8325 290.75 404.8125 C291.74 404.4825 292.73 404.1525 293.75 403.8125 C293.75 403.1525 293.75 402.4925 293.75 401.8125 C294.41 401.8125 295.07 401.8125 295.75 401.8125 C297.11233884 400.3623595 297.11233884 400.3623595 298.375 398.5 C298.82101562 397.88511719 299.26703125 397.27023437 299.7265625 396.63671875 C300.99464281 394.72505444 300.99464281 394.72505444 300.75 391.8125 C301.74 391.4825 302.73 391.1525 303.75 390.8125 C305.54434065 388.51156791 305.54434065 388.51156791 307.3125 385.625 C310.38829144 380.86686959 313.55825196 376.21809317 316.875 371.625 C322.48014506 363.81734274 327.67125011 356.10178225 332.19140625 347.61328125 C333.72408093 344.85907637 335.3870944 342.25353297 337.125 339.625 C341.61449167 332.65990242 345.16769477 325.2681144 348.75 317.8125 C349.3682666 316.52883545 349.3682666 316.52883545 349.99902344 315.21923828 C361.05480079 292.22702516 371.86758285 269.23517656 378.50537109 244.5168457 C378.76012207 243.57800537 379.01487305 242.63916504 379.27734375 241.671875 C379.49124756 240.85170898 379.70515137 240.03154297 379.92553711 239.18652344 C380.75 236.8125 380.75 236.8125 382.22314453 234.42626953 C384.0078169 231.37115243 384.78907964 228.56268453 385.65234375 225.1328125 C385.81500229 224.49159454 385.97766083 223.85037659 386.14524841 223.18972778 C386.66914409 221.10795611 387.17929705 219.02315393 387.6875 216.9375 C387.86363831 216.22541382 388.03977661 215.51332764 388.22125244 214.77966309 C391.14095907 202.954171 393.53952199 191.1023666 395.40039062 179.06103516 C395.857972 176.11807112 396.36729686 173.18467801 396.875 170.25 C397.16791976 168.43770209 397.45940962 166.62517287 397.75 164.8125 C397.91604736 163.82169434 398.08209473 162.83088867 398.25317383 161.81005859 C399.71395336 152.51217964 400.13989366 143.39471628 400.3125 134 C400.35655234 131.82169618 400.40305581 129.64353143 400.45530701 127.46540833 C400.50138503 125.52418512 400.5391415 123.58276962 400.57641602 121.64135742 C400.75 118.8125 400.75 118.8125 401.75 117.8125 C402.29082663 106.84354421 401.49789061 95.86262765 400.63305664 84.93164062 C400.43826692 82.44728138 400.25863374 79.96213502 400.08007812 77.4765625 C399.43311884 59.65201271 399.43311884 59.65201271 394.75 42.8125 C394.5719644 41.39951906 394.43076947 39.98173364 394.3125 38.5625 C393.92045385 34.72167291 393.06749095 31.45497497 391.75 27.8125 C391.03851973 25.15533901 390.39552219 22.4868062 389.75 19.8125 C386.04856899 20.17361522 383.29046816 20.92552546 380.125 22.8125 C377.35415659 24.45448128 375.72852563 25.06786859 372.75 25.8125 C372.069375 26.51246094 372.069375 26.51246094 371.375 27.2265625 C368.42385019 30.10677121 364.52139545 31.2656588 360.75 32.8125 C359.59371094 33.29074219 358.43742187 33.76898438 357.24609375 34.26171875 C350.22420305 37.13389621 343.18443591 39.76321825 335.9453125 42.05078125 C333.80117269 42.61591253 333.80117269 42.61591253 332.75 43.8125 C320.81502623 46.00634133 308.8796674 47.40694881 296.75 47.8125 C294.79513672 47.89177734 294.79513672 47.89177734 292.80078125 47.97265625 C272.38983124 48.43245238 253.29771223 42.68328055 234.625 34.8125 C233.95656067 34.53403229 233.28812134 34.25556458 232.59942627 33.96865845 C222.81056441 29.87158159 213.61292909 25.27334389 204.72607422 19.41992188 C200.67413933 16.75560145 200.67413933 16.75560145 196.12109375 15.23828125 C192.74990472 16.0546977 190.22838777 17.84309462 187.4375 19.8125 Z " fill="#061547" transform="translate(81.25,25.1875)"/>
<path d="M0 0 C5.26582226 2.02531625 10.67322516 1.47340196 16.25 1.25 C16.58 0.59 16.91 -0.07 17.25 -0.75 C17.91 -0.75 18.57 -0.75 19.25 -0.75 C19.38277344 -1.38808594 19.51554688 -2.02617187 19.65234375 -2.68359375 C19.82894531 -3.50988281 20.00554687 -4.33617187 20.1875 -5.1875 C20.36152344 -6.01121094 20.53554688 -6.83492187 20.71484375 -7.68359375 C21.25 -9.75 21.25 -9.75 22.25 -10.75 C24.23 -10.75 26.21 -10.75 28.25 -10.75 C28.25 15.98 28.25 42.71 28.25 70.25 C25.94 70.25 23.63 70.25 21.25 70.25 C21.07984375 69.17363281 20.9096875 68.09726563 20.734375 66.98828125 C17.80206003 46.23691129 17.80206003 46.23691129 7.59765625 28.6015625 C6.25 27.25 6.25 27.25 6.25 25.25 C4.765 24.755 4.765 24.755 3.25 24.25 C2.26 22.950625 2.26 22.950625 1.25 21.625 C-5.41861015 13.32407333 -17.66595834 7.61165278 -27.9609375 5.6328125 C-32.69400144 5.15462666 -37.37041478 5.02716906 -42.125 5 C-43.46691406 4.9690625 -43.46691406 4.9690625 -44.8359375 4.9375 C-53.57903261 4.88666805 -60.56971935 6.38635023 -67 12.625 C-67.83144531 13.42164063 -68.66289062 14.21828125 -69.51953125 15.0390625 C-70.25558594 15.76867187 -70.99164063 16.49828125 -71.75 17.25 C-72.56017578 18.00410156 -72.56017578 18.00410156 -73.38671875 18.7734375 C-78.47877659 23.57495751 -80.63574365 28.05418267 -80.8828125 34.96484375 C-80.88545579 36.37239576 -80.88269845 37.77996656 -80.875 39.1875 C-80.87886719 39.89068359 -80.88273437 40.59386719 -80.88671875 41.31835938 C-80.87965265 45.08812512 -80.653467 48.58593938 -79.75 52.25 C-79.09 52.25 -78.43 52.25 -77.75 52.25 C-77.13125 53.3225 -76.5125 54.395 -75.875 55.5 C-75.32005859 56.45712891 -75.32005859 56.45712891 -74.75390625 57.43359375 C-73.75 59.25 -73.75 59.25 -72.8125 61.5625 C-71.27937964 63.99745586 -69.42478798 64.23952454 -66.75 65.25 C-64.29857647 66.76052446 -61.89357739 68.32263358 -59.75 70.25 C-59.75 70.91 -59.75 71.57 -59.75 72.25 C-59.18716309 72.52239502 -58.62432617 72.79479004 -58.04443359 73.07543945 C-55.64245034 74.30505654 -53.34956939 75.64918769 -51.0390625 77.04296875 C-40.78449321 83.1897135 -30.57950904 89.16789252 -19.75 94.25 C-19.75 94.91 -19.75 95.57 -19.75 96.25 C-16.78 97.24 -13.81 98.23 -10.75 99.25 C-10.75 99.91 -10.75 100.57 -10.75 101.25 C-9.86957031 101.52070313 -8.98914063 101.79140625 -8.08203125 102.0703125 C10.79621189 108.75405157 28.65611512 123.59486238 38.1875 141 C44.68947261 155.0184374 46.58726321 172.14180206 42.0625 187.125 C41.49257118 188.51454075 40.88539694 189.88914986 40.25 191.25 C39.86070312 192.178125 39.47140625 193.10625 39.0703125 194.0625 C35.50087966 201.96768459 30.79183772 208.53011435 24.25 214.25 C23.26 214.25 22.27 214.25 21.25 214.25 C21.023125 214.8275 20.79625 215.405 20.5625 216 C17.63707165 221.01502002 12.37636522 223.41120336 7.3125 225.875 C6.71759766 226.1740625 6.12269531 226.473125 5.50976562 226.78125 C-5.44086585 232.19074227 -15.77661297 233.62165255 -27.875 233.5625 C-29.07552002 233.55686035 -30.27604004 233.5512207 -31.51293945 233.54541016 C-44.29944758 233.37064362 -55.37685533 231.17747431 -67.21166992 226.31982422 C-71.40725724 224.61415933 -75.28297424 223.86801084 -79.75 223.25 C-81.235 222.26 -81.235 222.26 -82.75 221.25 C-86.18307165 221.00729175 -86.18307165 221.00729175 -89.9375 221.125 C-91.20980469 221.14304687 -92.48210937 221.16109375 -93.79296875 221.1796875 C-94.76878906 221.20289063 -95.74460937 221.22609375 -96.75 221.25 C-96.95496094 222.03246094 -97.15992188 222.81492187 -97.37109375 223.62109375 C-97.64050781 224.63300781 -97.90992188 225.64492188 -98.1875 226.6875 C-98.58775391 228.20150391 -98.58775391 228.20150391 -98.99609375 229.74609375 C-99.75 232.25 -99.75 232.25 -100.75 233.25 C-102.74958364 233.29080783 -104.75045254 233.29254356 -106.75 233.25 C-107.75341761 229.08680358 -107.87677854 225.18139644 -107.87939453 220.90527344 C-107.88114685 220.18438538 -107.88289917 219.46349731 -107.88470459 218.72076416 C-107.88908784 216.35027626 -107.88619882 213.97986359 -107.8828125 211.609375 C-107.88348626 209.95981838 -107.88445688 208.31026185 -107.88571167 206.66070557 C-107.88718361 203.21096853 -107.88504917 199.76125745 -107.88037109 196.31152344 C-107.87465617 191.88042019 -107.8779671 187.44937728 -107.88394356 183.01827621 C-107.88754752 179.61606385 -107.88641166 176.21386593 -107.88381577 172.81165314 C-107.88314696 171.1769027 -107.8839733 169.54215096 -107.88629532 167.90740204 C-107.88882107 165.63061514 -107.88498322 163.35392787 -107.87939453 161.07714844 C-107.87859894 159.77984802 -107.87780334 158.48254761 -107.87698364 157.14593506 C-107.75 154.25 -107.75 154.25 -106.75 153.25 C-104.41702567 153.20907063 -102.08294775 153.20758277 -99.75 153.25 C-99.51925781 154.54292969 -99.28851563 155.83585938 -99.05078125 157.16796875 C-97.32522235 166.48275811 -95.43326437 175.17295276 -91.703125 183.9140625 C-90.75 186.25 -90.75 186.25 -90.75 188.25 C-90.09 188.25 -89.43 188.25 -88.75 188.25 C-88.1725 189.3225 -87.595 190.395 -87 191.5 C-85.63305558 193.9214444 -84.49712955 195.50287045 -82.5 197.5 C-81.9225 198.0775 -81.345 198.655 -80.75 199.25 C-80.75 200.24 -80.75 201.23 -80.75 202.25 C-80.15703125 202.36085938 -79.5640625 202.47171875 -78.953125 202.5859375 C-76.51959008 203.3194498 -75.40041159 204.21435996 -73.5 205.875 C-58.133902 217.59058853 -39.31014047 219.54693176 -20.578125 217.7890625 C-12.38267018 216.63500866 -6.19434761 214.54502692 -0.75 208.25 C0.24 207.92 1.23 207.59 2.25 207.25 C3.71747964 205.16646951 5.02987931 203.12913943 6.3125 200.9375 C6.66376953 200.35548828 7.01503906 199.77347656 7.37695312 199.17382812 C8.35353649 197.54372772 9.30266788 195.89727177 10.25 194.25 C10.6521875 193.61707031 11.054375 192.98414063 11.46875 192.33203125 C14.39131082 184.54340667 12.95203616 173.80344076 9.9375 166.3125 C8.28898518 162.71349017 7.60299363 161.48532909 4.25 159.25 C4.01095947 158.28356567 4.01095947 158.28356567 3.76708984 157.29760742 C3.10414331 154.67242678 2.15128921 154.04899136 -0.0234375 152.48828125 C-1.0134375 151.76995117 -1.0134375 151.76995117 -2.0234375 151.03710938 C-2.71695313 150.55048828 -3.41046875 150.06386719 -4.125 149.5625 C-4.81078125 149.06427734 -5.4965625 148.56605469 -6.203125 148.05273438 C-9.0780048 145.99165809 -11.36788613 144.37737129 -14.75 143.25 C-14.75 142.59 -14.75 141.93 -14.75 141.25 C-15.471875 140.96125 -16.19375 140.6725 -16.9375 140.375 C-19.54166667 139.33333333 -22.14583333 138.29166667 -24.75 137.25 C-24.75 136.59 -24.75 135.93 -24.75 135.25 C-26.4 134.92 -28.05 134.59 -29.75 134.25 C-29.75 133.59 -29.75 132.93 -29.75 132.25 C-30.471875 131.981875 -31.19375 131.71375 -31.9375 131.4375 C-34.75 130.25 -34.75 130.25 -37.3125 128.6875 C-39.53146478 127.37887975 -41.24075157 126.71467564 -43.75 126.25 C-43.75 125.59 -43.75 124.93 -43.75 124.25 C-44.430625 124.17523438 -45.11125 124.10046875 -45.8125 124.0234375 C-49.61537548 123.02214848 -52.53101657 121.04850164 -55.75 118.875 C-56.95791336 118.07488645 -58.16623943 117.27539557 -59.375 116.4765625 C-60.24511719 115.89817627 -60.24511719 115.89817627 -61.1328125 115.30810547 C-63.30047075 113.8898339 -65.52278708 112.57240767 -67.75 111.25 C-70.09139605 109.80288716 -72.42392566 108.34619232 -74.75 106.875 C-75.65492188 106.31425781 -75.65492188 106.31425781 -76.578125 105.7421875 C-80.4562143 103.28044386 -83.56513539 100.59804671 -86.75 97.25 C-87.53375 96.651875 -88.3175 96.05375 -89.125 95.4375 C-100.8512242 85.6656465 -108.85453963 72.00847199 -110.26953125 56.7265625 C-110.98649166 43.27655328 -108.40271013 27.15729478 -99.1875 16.7421875 C-98.713125 16.24976563 -98.23875 15.75734375 -97.75 15.25 C-96.89090923 14.19147745 -96.0365374 13.12910323 -95.1875 12.0625 C-87.43505907 3.11737585 -78.94841219 -2.89993508 -67.75 -6.75 C-66.739375 -7.12125 -65.72875 -7.4925 -64.6875 -7.875 C-43.60437986 -14.15507834 -18.81162237 -11.97103242 0 0 Z " fill="#051546" transform="translate(354.75,187.75)"/>
<path d="M0 0 C3.79791901 3.91022306 6.17348393 8.68847411 8.640625 13.49609375 C8.98230713 14.15593262 9.32398926 14.81577148 9.67602539 15.49560547 C14.30249901 24.90065595 14.77800307 33.99028419 14.828125 44.37109375 C14.86099609 45.55703125 14.89386719 46.74296875 14.92773438 47.96484375 C14.99080295 58.46862815 12.37618894 67.88166952 6.390625 76.62109375 C5.730625 76.62109375 5.070625 76.62109375 4.390625 76.62109375 C4.2978125 77.48734375 4.2978125 77.48734375 4.203125 78.37109375 C3.0632995 81.52753361 1.05467871 82.65476839 -1.609375 84.62109375 C-2.0528125 85.09160156 -2.49625 85.56210938 -2.953125 86.046875 C-8.93730007 91.73466404 -16.4854136 94.53246872 -24.609375 94.62109375 C-25.25648438 94.67007813 -25.90359375 94.7190625 -26.5703125 94.76953125 C-32.01002724 95.0404749 -37.26359452 94.1481388 -42.609375 93.24609375 C-43.37636719 93.12008789 -44.14335937 92.99408203 -44.93359375 92.86425781 C-46.83974344 92.52118509 -48.72749752 92.07896126 -50.609375 91.62109375 C-52.3169398 88.20596415 -51.77508609 84.29600705 -51.78637695 80.53735352 C-51.79294815 79.595784 -51.79951935 78.65421448 -51.80628967 77.68411255 C-51.82604322 74.56024096 -51.83768809 71.43641742 -51.84765625 68.3125 C-51.85173178 67.24792006 -51.8558073 66.18334011 -51.86000633 65.08650017 C-51.880873 59.4550483 -51.89517376 53.82362086 -51.90454102 48.19213867 C-51.91562399 42.36310502 -51.95004406 36.53445117 -51.98971272 30.7055521 C-52.015797 26.23352831 -52.02422541 21.76159628 -52.02782249 17.2895031 C-52.03270744 15.14002852 -52.04437518 12.99055855 -52.06286049 10.84115791 C-52.08708427 7.83853716 -52.08631796 4.83691607 -52.0793457 1.83422852 C-52.09215576 0.9411348 -52.10496582 0.04804108 -52.11816406 -0.87211609 C-52.06728957 -6.8609182 -52.06728957 -6.8609182 -49.811203 -9.41297913 C-33.64881312 -16.50331078 -12.71702503 -10.89589766 0 0 Z " fill="#FCFCFD" transform="translate(222.609375,109.37890625)"/>
<path d="M0 0 C1.72953019 4.08914944 0.05396296 7.29889874 -1.5078125 11.15625 C-1.78158722 11.85729858 -2.05536194 12.55834717 -2.33743286 13.28063965 C-2.92040238 14.769706 -3.50829302 16.25685369 -4.10070801 17.7421875 C-4.97332551 19.93302954 -5.83047737 22.12924759 -6.68261719 24.328125 C-8.10303273 27.98614746 -9.54404289 31.63558384 -10.99462891 35.28173828 C-11.581057 36.75935494 -12.16439802 38.23820056 -12.74462891 39.71826172 C-16.4689621 49.21646279 -20.53336162 58.40954125 -25.20751953 67.48046875 C-27.63568485 72.24816572 -29.8428321 77.10488824 -32 82 C-32.66 82 -33.32 82 -34 82 C-32.39994017 76.61822695 -30.00890171 71.79823785 -27.53125 66.78515625 C-21.46874319 54.2809934 -16.48409748 41.40005307 -11.5 28.4375 C-10.16326164 24.98112475 -8.82425903 21.5256415 -7.48352051 18.07081604 C-6.65935845 15.94505502 -5.83785461 13.81826089 -5.01940918 11.69029236 C-4.65142212 10.73731766 -4.28343506 9.78434296 -3.90429688 8.80249023 C-3.423255 7.55181007 -3.423255 7.55181007 -2.93249512 6.27586365 C-2.05053963 4.12334789 -1.06997613 2.0645076 0 0 Z " fill="#B3B5C4" transform="translate(474,275)"/>
<path d="M0 0 C3.82449349 3.72660883 7.35351899 7.62122976 10.8125 11.6875 C11.33948486 12.30471924 11.86646973 12.92193848 12.40942383 13.55786133 C16.0460119 17.83433781 19.59230084 22.17372585 23.078125 26.57421875 C29.4590942 34.62824695 36.05246761 42.42833941 43 50 C40 50 40 50 38.4921875 48.85546875 C34.23793948 44.46763323 30.35503506 39.85382342 26.5234375 35.09375 C23.71936915 31.65594485 20.83721126 28.29451013 17.9375 24.9375 C0 4.10804149 0 4.10804149 0 0 Z " fill="#B1B3C2" transform="translate(158,424)"/>
<path d="M0 0 C0.33 0 0.66 0 1 0 C1.02779013 1.47905232 1.04673956 2.95827058 1.0625 4.4375 C1.07410156 5.26121094 1.08570313 6.08492188 1.09765625 6.93359375 C1 10 1 10 0.50390625 13.9140625 C-0.27587351 20.5702625 -0.14475127 27.24511223 -0.125 33.9375 C-0.12886719 35.24396484 -0.13273437 36.55042969 -0.13671875 37.89648438 C-0.13029065 44.2828013 0.04123531 50.53969857 0.77734375 56.8840332 C1.08453097 59.80332227 1.09660588 62.69189394 1.0625 65.625 C1.05347656 66.64851563 1.04445312 67.67203125 1.03515625 68.7265625 C1.02355469 69.47679687 1.01195312 70.22703125 1 71 C0.67 71 0.34 71 0 71 C0 69.35 0 67.7 0 66 C-0.66 66 -1.32 66 -2 66 C-2.02564096 59.29631378 -2.04298715 52.59264049 -2.05493164 45.88891602 C-2.05991833 43.61482267 -2.06671009 41.34073245 -2.07543945 39.06665039 C-2.20501119 4.41002238 -2.20501119 4.41002238 0 0 Z " fill="#CFD0D7" transform="translate(59,101)"/>
<path d="M0 0 C0.33 0 0.66 0 1 0 C1.05848483 4.33327584 1.09375916 8.66644885 1.125 13 C1.14175781 14.22074219 1.15851563 15.44148437 1.17578125 16.69921875 C1.21114039 23.24065926 0.79895806 28.73029802 -1 35 C-1.44252522 37.92742253 -1.72112026 40.86552254 -2 43.8125 C-2.69446274 50.612623 -3.61289281 57.30056739 -5 64 C-5.66 63.67 -6.32 63.34 -7 63 C-6.08541162 55.35837344 -5.11413947 47.73029012 -4.01171875 40.11328125 C-2.08606697 26.73776045 -0.36190564 13.51717547 0 0 Z " fill="#979BAF" transform="translate(496,154)"/>
<path d="M0 0 C1.70639385 5.11918154 0.07285395 9.78536228 -1.39135742 14.83105469 C-6.13726175 31.74345505 -9.08756011 48.46199796 -10 66 C-10.33 66 -10.66 66 -11 66 C-11.46120076 51.03659748 -9.14878743 37.13873503 -6.0625 22.5625 C-5.80968262 21.3655249 -5.55686523 20.1685498 -5.29638672 18.93530273 C-3.88541291 12.45921352 -2.23589369 6.24047939 0 0 Z " fill="#B5B8C6" transform="translate(71,34)"/>
<path d="M0 0 C0.66 0.33 1.32 0.66 2 1 C-8.79354949 12.16934038 -20.66383685 21.60568816 -33 31 C-33.66 30.67 -34.32 30.34 -35 30 C-21.82344794 18.63161713 -21.82344794 18.63161713 -15.25 13.3125 C-10.00086369 9.05391393 -4.97958447 4.56911981 0 0 Z " fill="#B6B8C6" transform="translate(340,489)"/>
<path d="M0 0 C3 1 3 1 4.0625 2.96875 C4.371875 3.8040625 4.68125 4.639375 5 5.5 C5.33773437 6.40105469 5.67546875 7.30210937 6.0234375 8.23046875 C7.1730726 11.49083391 8.28676783 14.75920091 9.34375 18.05078125 C10.00512099 20.12043238 10.00512099 20.12043238 11.125 22.5 C12.43508878 26.24311081 12.67413117 30.06384751 13 34 C10.7748213 31.25558693 9.40067328 28.82582755 8.28125 25.48046875 C7.98863281 24.62259766 7.69601563 23.76472656 7.39453125 22.88085938 C6.95173828 21.54764648 6.95173828 21.54764648 6.5 20.1875 C4.11763675 13.03243474 4.11763675 13.03243474 1.28125 6.05078125 C0 3 0 3 0 0 Z " fill="#27305D" transform="translate(84,281)"/>
<path d="M0 0 C0.99 0.33 1.98 0.66 3 1 C2.2265625 1.95519531 1.453125 2.91039062 0.65625 3.89453125 C-5.44299248 11.45582687 -11.39076954 19.06458867 -17 27 C-17.33 26.01 -17.66 25.02 -18 24 C-17.01 22.515 -17.01 22.515 -16 21 C-15.34 21 -14.68 21 -14 21 C-13.7834375 20.071875 -13.7834375 20.071875 -13.5625 19.125 C-13 17 -13 17 -12 15 C-11.34 15 -10.68 15 -10 15 C-9.87625 14.236875 -9.7525 13.47375 -9.625 12.6875 C-9 10 -9 10 -7 7 C-6.34 7 -5.68 7 -5 7 C-4.731875 6.401875 -4.46375 5.80375 -4.1875 5.1875 C-3.01506533 3.02775192 -1.80630718 1.64209744 0 0 Z " fill="#1B2554" transform="translate(397,421)"/>
<path d="M0 0 C2.97640227 3.61620057 4.95935067 7.59568732 7.046875 11.7578125 C7.42233459 12.50207489 7.79779419 13.24633728 8.18463135 14.01315308 C8.97333478 15.58046628 9.75989391 17.14886016 10.54443359 18.71826172 C11.75142561 21.12784603 12.97108682 23.5307372 14.19140625 25.93359375 C14.95651147 27.45794093 15.72086115 28.98266762 16.484375 30.5078125 C16.85197937 31.22865021 17.21958374 31.94948792 17.59832764 32.69216919 C18.46038032 34.43231237 19.23883807 36.21342069 20 38 C19.67 38.66 19.34 39.32 19 40 C13.60726732 31.52012326 8.7900471 22.87493974 4.4375 13.8125 C3.99615723 12.90411377 3.55481445 11.99572754 3.10009766 11.05981445 C2.69452637 10.200896 2.28895508 9.34197754 1.87109375 8.45703125 C1.50943115 7.69366455 1.14776855 6.93029785 0.77514648 6.14379883 C0 4 0 4 0 0 Z " fill="#B8BBC8" transform="translate(99,322)"/>
<path d="M0 0 C3.68268739 0.49766046 5.65028767 1.06285959 8 4 C8.33 4.66 8.66 5.32 9 6 C11.3140622 6.73075648 13.64828869 7.40138258 16 8 C16 8.66 16 9.32 16 10 C16.66386719 10.12117187 17.32773437 10.24234375 18.01171875 10.3671875 C25.4567502 11.78011318 25.4567502 11.78011318 28.625 13.0625 C32.03883145 14.41006505 35.35308052 14.62912683 39 15 C39 15.33 39 15.66 39 16 C33.498748 16.19227677 29.07180715 16.34083407 24 14 C22.700625 13.835 21.40125 13.67 20.0625 13.5 C12.75704888 12.01665967 6.66268449 6.60482036 1 2 C0.67 1.34 0.34 0.68 0 0 Z " fill="#4E577B" transform="translate(245,514)"/>
<path d="M0 0 C0.33 0.66 0.66 1.32 1 2 C0.33837891 3.76489258 0.33837891 3.76489258 -0.7734375 5.89453125 C-1.18223145 6.67981201 -1.59102539 7.46509277 -2.01220703 8.27416992 C-2.46192871 9.11181885 -2.91165039 9.94946777 -3.375 10.8125 C-3.82601074 11.66239502 -4.27702148 12.51229004 -4.74169922 13.38793945 C-8.66450654 20.64684452 -13.07957666 27.38001015 -18 34 C-18.33 33.34 -18.66 32.68 -19 32 C-18.23071289 30.23510742 -18.23071289 30.23510742 -16.97265625 28.10546875 C-16.5135083 27.32018799 -16.05436035 26.53490723 -15.58129883 25.72583008 C-15.08009521 24.88818115 -14.5788916 24.05053223 -14.0625 23.1875 C-13.31166138 21.91265747 -13.31166138 21.91265747 -12.5456543 20.61206055 C-8.45255138 13.68702939 -4.27110612 6.81663642 0 0 Z " fill="#AFB2C1" transform="translate(437,361)"/>
<path d="M0 0 C1.39122904 4.39132971 0.03624407 7.3766071 -1.625 11.5 C-1.89844238 12.20253906 -2.17188477 12.90507812 -2.45361328 13.62890625 C-4.86867092 19.79310664 -7.39493247 25.91382452 -10 32 C-10.66 32 -11.32 32 -12 32 C-11.33553963 27.93720499 -10.06349163 24.406859 -8.49609375 20.60546875 C-8.00302734 19.40341797 -7.50996094 18.20136719 -7.00195312 16.96289062 C-6.48056595 15.70438681 -5.95908034 14.44592377 -5.4375 13.1875 C-4.91169842 11.90967423 -4.38630353 10.63168104 -3.86132812 9.35351562 C-2.57820948 6.234007 -1.29096615 3.11626734 0 0 Z " fill="#ABAEBE" transform="translate(474,275)"/>
<path d="M0 0 C5.55126663 10.23952122 4.21023492 22.72907248 4 34 C1.89726958 30.84590437 1.66656652 29.61965389 1.3671875 25.95703125 C1.28339844 24.96509766 1.19960938 23.97316406 1.11328125 22.95117188 C1.03464844 21.91541016 0.95601563 20.87964844 0.875 19.8125 C0.78863281 18.79607422 0.70226562 17.77964844 0.61328125 16.73242188 C0.1580027 11.13538641 -0.09413918 5.61472941 0 0 Z " fill="#AFB2C1" transform="translate(494,82)"/>
<path d="M0 0 C1.42600325 4.27800976 -0.54362936 6.86765922 -2.4375 10.6875 C-2.77587891 11.38939453 -3.11425781 12.09128906 -3.46289062 12.81445312 C-4.29981348 14.54723706 -5.14877393 16.27419752 -6 18 C-6.99 17.67 -7.98 17.34 -9 17 C-7.37319894 11.38014179 -4.96273034 6.04233913 -2 1 C-1.34 0.67 -0.68 0.34 0 0 Z " fill="#182352" transform="translate(452,327)"/>
<path d="M0 0 C10.69220032 -0.19558903 21.32799208 0.40945411 32 1 C32 1.66 32 2.32 32 3 C28.18751574 3.02887236 24.3750593 3.04675492 20.5625 3.0625 C19.47388672 3.07087891 18.38527344 3.07925781 17.26367188 3.08789062 C16.22919922 3.09111328 15.19472656 3.09433594 14.12890625 3.09765625 C13.17056885 3.10289307 12.21223145 3.10812988 11.22485352 3.11352539 C9 3 9 3 8 2 C6.65252916 1.76924918 5.29622435 1.58846937 3.9375 1.4375 C2.638125 1.293125 1.33875 1.14875 0 1 C0 0.67 0 0.34 0 0 Z " fill="#262F5C" transform="translate(162,58)"/>
<path d="M0 0 C3.13120076 3.43732374 3.85920632 6.98632423 4.625 11.4375 C4.74617188 12.09298828 4.86734375 12.74847656 4.9921875 13.42382812 C5.3349904 15.28129816 5.66775216 17.14061297 6 19 C6.32869658 20.66758731 6.65988188 22.33470467 7 24 C6.01 23.67 5.02 23.34 4 23 C3.18457031 20.8828125 3.18457031 20.8828125 2.578125 18.125 C2.24748047 16.64773437 2.24748047 16.64773437 1.91015625 15.140625 C1.69230469 14.10421875 1.47445312 13.0678125 1.25 12 C0.90001953 10.44539062 0.90001953 10.44539062 0.54296875 8.859375 C-0.68400534 3.24615224 -0.68400534 3.24615224 -1 1 C-0.67 0.67 -0.34 0.34 0 0 Z " fill="#182252" transform="translate(68,221)"/>
<path d="M0 0 C0.33 0 0.66 0 1 0 C1.08733513 3.08315385 1.14050127 6.16598827 1.1875 9.25 C1.21263672 10.12269531 1.23777344 10.99539062 1.26367188 11.89453125 C1.33834499 18.41598332 1.33834499 18.41598332 -0.51171875 21.609375 C-1.00285156 22.06828125 -1.49398437 22.5271875 -2 23 C-2.265625 6.796875 -2.265625 6.796875 0 0 Z " fill="#313B65" transform="translate(63,74)"/>
<path d="M0 0 C0.99 0.495 0.99 0.495 2 1 C3.25210677 7.63616588 3.10098969 14.2673537 3 21 C2.67 21 2.34 21 2 21 C2 19.35 2 17.7 2 16 C1.34 16 0.68 16 0 16 C0 10.72 0 5.44 0 0 Z " fill="#C1C3CE" transform="translate(57,151)"/>
<path d="M0 0 C1.45880109 0.14107747 2.91703551 0.28802415 4.375 0.4375 C5.59316406 0.55931641 5.59316406 0.55931641 6.8359375 0.68359375 C9 1 9 1 11 2 C13.37402501 2.07116382 15.75000677 2.08409085 18.125 2.0625 C19.40632813 2.05347656 20.68765625 2.04445313 22.0078125 2.03515625 C23.48894531 2.01775391 23.48894531 2.01775391 25 2 C24.67 2.66 24.34 3.32 24 4 C7.1070615 4.55353075 7.1070615 4.55353075 0 1 C0 0.67 0 0.34 0 0 Z " fill="#C3C7D3" transform="translate(263,527)"/>
<path d="M0 0 C3 1 3 1 4.1328125 3.14453125 C4.46023437 4.02496094 4.78765625 4.90539062 5.125 5.8125 C5.45757812 6.68519531 5.79015625 7.55789063 6.1328125 8.45703125 C6.87335725 10.62862868 7.48945093 12.76504539 8 15 C5.2516563 13.97803186 4.18172662 13.32699573 2.734375 10.72265625 C2.24710937 9.40587891 2.24710937 9.40587891 1.75 8.0625 C1.41484375 7.18722656 1.0796875 6.31195313 0.734375 5.41015625 C0 3 0 3 0 0 Z " fill="#1E2957" transform="translate(84,281)"/>
<path d="M0 0 C0.45890625 0.40992188 0.9178125 0.81984375 1.390625 1.2421875 C2.31101563 2.05042969 2.31101563 2.05042969 3.25 2.875 C3.85328125 3.40867187 4.4565625 3.94234375 5.078125 4.4921875 C6.97418746 5.9797487 8.81290005 7.00322436 11 8 C11 8.99 11 9.98 11 11 C11.66 11.33 12.32 11.66 13 12 C8.79452429 12 6.83289639 9.63261876 3.8125 7 C3.25369141 6.52304687 2.69488281 6.04609375 2.11914062 5.5546875 C0.74047164 4.37633794 -0.63051472 3.18901048 -2 2 C-1.34 1.34 -0.68 0.68 0 0 Z " fill="#28315E" transform="translate(227,497)"/>
<path d="M0 0 C0.99 0 1.98 0 3 0 C3 0.66 3 1.32 3 2 C3.99 2 4.98 2 6 2 C6.433125 2.928125 6.86625 3.85625 7.3125 4.8125 C8.72038627 7.47184073 9.76123556 9.08105905 12 11 C11.67 11.99 11.34 12.98 11 14 C9.53618641 12.42173185 8.07914837 10.83717771 6.625 9.25 C5.81289062 8.36828125 5.00078125 7.4865625 4.1640625 6.578125 C2.3374152 4.40197479 1.10212006 2.59179881 0 0 Z " fill="#212A59" transform="translate(186,457)"/>
<path d="M0 0 C2.41033493 0.88285524 4.67202664 1.90727781 7 3 C3.28233332 4.23922223 1.56110463 3.57018942 -2.1875 2.5625 C-3.27417969 2.27503906 -4.36085938 1.98757812 -5.48046875 1.69140625 C-6.31191406 1.46324219 -7.14335938 1.23507813 -8 1 C-8.33 1.99 -8.66 2.98 -9 4 C-9.66 4 -10.32 4 -11 4 C-8.38550872 -1.78923068 -6.02388491 -1.18502654 0 0 Z " fill="#576082" transform="translate(85,26)"/>
<path d="M0 0 C0.66 0.33 1.32 0.66 2 1 C-2.455 8.425 -2.455 8.425 -7 16 C-8 12 -8 12 -6.6015625 9.23828125 C-5.94929688 8.27277344 -5.29703125 7.30726563 -4.625 6.3125 C-3.97789062 5.33925781 -3.33078125 4.36601562 -2.6640625 3.36328125 C-1 1 -1 1 0 0 Z " fill="#1E2756" transform="translate(436,360)"/>
<path d="M0 0 C0.33 0 0.66 0 1 0 C1.36332974 2.58234359 1.71594867 5.16539782 2.0625 7.75 C2.16626953 8.47960937 2.27003906 9.20921875 2.37695312 9.9609375 C2.85806208 13.6107296 3.04532842 16.47672914 2 20 C-0.03120707 16.95318939 -0.24659875 16.39881676 -0.1953125 12.98828125 C-0.18886719 12.23095703 -0.18242187 11.47363281 -0.17578125 10.69335938 C-0.15902344 9.90767578 -0.14226562 9.12199219 -0.125 8.3125 C-0.11597656 7.51521484 -0.10695313 6.71792969 -0.09765625 5.89648438 C-0.07411585 3.930861 -0.03824547 1.96539225 0 0 Z " fill="#202B59" transform="translate(492,74)"/>
<path d="M0 0 C3.23751093 6.29077328 3.1216324 12.03992396 3 19 C2.67 19 2.34 19 2 19 C0.04978464 12.53991163 -0.22262303 6.7281627 0 0 Z " fill="#B0B2C1" transform="translate(491,60)"/>
<path d="M0 0 C-1.3125 1.9375 -1.3125 1.9375 -4 4 C-7.65582511 4.6575225 -11.29108788 4.87210648 -15 5 C-12.30932731 3.20621821 -9.91421743 2.02686042 -6.9375 0.8125 C-5.62072266 0.26529297 -5.62072266 0.26529297 -4.27734375 -0.29296875 C-2 -1 -2 -1 0 0 Z " fill="#2A3460" transform="translate(423,50)"/>
<path d="M0 0 C3.05875192 0.44930819 5.44721548 1.72848554 8.07421875 3.3046875 C4.79013258 4.39938289 4.23957601 4.14223641 1.07421875 3.3046875 C-0.67465106 3.23844243 -2.42580873 3.21916155 -4.17578125 3.2421875 C-5.51382812 3.25572266 -5.51382812 3.25572266 -6.87890625 3.26953125 C-7.554375 3.28113281 -8.22984375 3.29273438 -8.92578125 3.3046875 C-6.19864907 0.11318297 -4.22063228 -0.14042769 0 0 Z " fill="#495177" transform="translate(279.92578125,24.6953125)"/>
<path d="M0 0 C4.06225548 0.57823096 6.84762346 1.89117737 10.3125 4.0625 C11.19550781 4.61035156 12.07851562 5.15820312 12.98828125 5.72265625 C13.65214844 6.14417969 14.31601563 6.56570312 15 7 C11.25 8.125 11.25 8.125 9 7 C9 6.34 9 5.68 9 5 C7.35 4.67 5.7 4.34 4 4 C4 3.34 4 2.68 4 2 C2.68 1.34 1.36 0.68 0 0 Z " fill="#212C59" transform="translate(90,30)"/>
<path d="M0 0 C0.33 0 0.66 0 1 0 C1.09038099 5.15171623 0.84681133 9.91913204 0 15 C-0.66 15 -1.32 15 -2 15 C-2.21755666 9.5610835 -2.10428384 5.12919186 0 0 Z " fill="#131F4F" transform="translate(494,173)"/>
<path d="M0 0 C5.75762166 1.08896667 11.39247819 2.29336293 17 4 C16.01 4.66 15.02 5.32 14 6 C11.875 5.3125 11.875 5.3125 9 4 C7.40086247 3.4436614 5.79626983 2.90283814 4.1875 2.375 C3.39730469 2.11460938 2.60710937 1.85421875 1.79296875 1.5859375 C1.20128906 1.39257812 0.60960937 1.19921875 0 1 C0 0.67 0 0.34 0 0 Z " fill="#172152" transform="translate(137,52)"/>
<path d="M0 0 C0.99 0.66 1.98 1.32 3 2 C2.01 3.98 1.02 5.96 0 8 C-0.99 7.67 -1.98 7.34 -3 7 C-1.125 1.125 -1.125 1.125 0 0 Z " fill="#1F2957" transform="translate(446,337)"/>
<path d="M0 0 C2.80045623 3.14591933 3.35261589 5.067064 3.1875 9.25 C3.16042969 10.14203125 3.13335937 11.0340625 3.10546875 11.953125 C3.07066406 12.62859375 3.03585938 13.3040625 3 14 C1.02103213 11.03154819 0.47758046 9.30541501 -0.1875 5.875 C-0.36667969 4.98554688 -0.54585938 4.09609375 -0.73046875 3.1796875 C-0.81941406 2.46039063 -0.90835938 1.74109375 -1 1 C-0.67 0.67 -0.34 0.34 0 0 Z " fill="#1F2957" transform="translate(68,221)"/>
<path d="M0 0 C0.33 0 0.66 0 1 0 C0.88541307 1.43836751 0.75790884 2.87570966 0.625 4.3125 C0.55539062 5.11300781 0.48578125 5.91351563 0.4140625 6.73828125 C0 9 0 9 -2 12 C-2.33 9.69 -2.66 7.38 -3 5 C-2.34 4.67 -1.68 4.34 -1 4 C-0.34786708 1.97536745 -0.34786708 1.97536745 0 0 Z " fill="#28315E" transform="translate(480,251)"/>
<path d="M0 0 C1.32 0 2.64 0 4 0 C5.0625 1.8125 5.0625 1.8125 6 4 C5.67 4.99 5.34 5.98 5 7 C3.29115995 5.37660195 1.62553283 3.70680947 0 2 C0 1.34 0 0.68 0 0 Z " fill="#2C3561" transform="translate(201,474)"/>
<path d="M0 0 C2 1 4 2 6 3 C6.40729228 5.32156597 6.74438677 7.6568787 7 10 C3.72713318 7.2180632 2.03572303 3.72045933 0 0 Z " fill="#1F2957" transform="translate(125,373)"/>
<path d="M0 0 C0.99 0.66 1.98 1.32 3 2 C2.01 3.98 1.02 5.96 0 8 C-0.99 7.67 -1.98 7.34 -3 7 C-2.01 4.69 -1.02 2.38 0 0 Z " fill="#252E5B" transform="translate(442,345)"/>
<path d="M0 0 C1.98 0.66 3.96 1.32 6 2 C6 2.66 6 3.32 6 4 C6.99 4.33 7.98 4.66 9 5 C5.625 4.75 5.625 4.75 2 4 C0.5625 1.9375 0.5625 1.9375 0 0 Z " fill="#1F2A58" transform="translate(255,520)"/>
<path d="M0 0 C0.66 0.33 1.32 0.66 2 1 C0.68 3.31 -0.64 5.62 -2 8 C-2.33 8 -2.66 8 -3 8 C-3.1875 5.125 -3.1875 5.125 -3 2 C-2.01 1.34 -1.02 0.68 0 0 Z " fill="#212B59" transform="translate(418,390)"/>
<path d="M0 0 C3.76607955 1.25535985 4.26441793 2.52883585 6 6 C6 6.99 6 7.98 6 9 C5.34 9 4.68 9 4 9 C2.68 6.03 1.36 3.06 0 0 Z " fill="#212A59" transform="translate(120,363)"/>
<path d="M0 0 C0.33 0 0.66 0 1 0 C0.125 7.75 0.125 7.75 -1 10 C-1.66 10 -2.32 10 -3 10 C-2.39009109 6.44219804 -1.4216319 3.3171411 0 0 Z " fill="#A1A4B6" transform="translate(465,297)"/>
<path d="M0 0 C-1.40945366 0.56016748 -2.8280031 1.09748502 -4.25 1.625 C-5.43335938 2.07746094 -5.43335938 2.07746094 -6.640625 2.5390625 C-9.49917715 3.09752136 -10.58959839 2.53690745 -13 1 C-11.58622218 0.63447197 -10.16879424 0.28304505 -8.75 -0.0625 C-7.96109375 -0.25972656 -7.1721875 -0.45695312 -6.359375 -0.66015625 C-3.89605178 -1.01497267 -2.34395868 -0.76877544 0 0 Z " fill="#242E5B" transform="translate(406,56)"/>
<path d="M0 0 C4 1 4 1 5.3125 2.875 C6 5 6 5 5 8 C2.525 4.04 2.525 4.04 0 0 Z " fill="#222B59" transform="translate(152,415)"/>
<path d="M0 0 C0.99 0.33 1.98 0.66 3 1 C0.36 2.98 -2.28 4.96 -5 7 C-5 6.01 -5 5.02 -5 4 C-2.6875 1.75 -2.6875 1.75 0 0 Z " fill="#262E5C" transform="translate(320,504)"/>
<path d="M0 0 C0.99 0.33 1.98 0.66 3 1 C1.35 2.65 -0.3 4.3 -2 6 C-2 4.35 -2 2.7 -2 1 C-1.34 0.67 -0.68 0.34 0 0 Z " fill="#212A58" transform="translate(365,460)"/>
<path d="M0 0 C1.32 0.33 2.64 0.66 4 1 C4.33 2.98 4.66 4.96 5 7 C4.34 7 3.68 7 3 7 C2.01 4.69 1.02 2.38 0 0 Z " fill="#202A58" transform="translate(101,325)"/>
</svg>
